<svg width="37" height="24" viewBox="0 0 37 24" fill="none" xmlns="http://www.w3.org/2000/svg">
<path d="M9.0221 16.796C9.0221 17.7147 8.87476 18.5553 8.5801 19.318C8.30276 20.098 7.91276 20.7653 7.4101 21.32C6.92476 21.8747 6.33543 22.308 5.6421 22.62C4.9661 22.932 4.2381 23.088 3.4581 23.088C2.3661 23.088 1.51676 22.8713 0.910098 22.438C0.303431 22.0047 9.76175e-05 21.424 9.76175e-05 20.696C9.76175e-05 20.54 0.0347643 20.3753 0.104098 20.202C0.156098 20.046 0.242764 19.8987 0.364098 19.76C0.468098 19.6213 0.606764 19.5087 0.780098 19.422C0.953431 19.3353 1.15276 19.292 1.3781 19.292C1.77676 19.292 2.1061 19.4133 2.3661 19.656C2.60876 19.8987 2.7301 20.176 2.7301 20.488C2.7301 20.644 2.66943 20.8 2.5481 20.956C2.42676 21.1293 2.3661 21.294 2.3661 21.45C2.3661 21.6753 2.47876 21.8487 2.7041 21.97C2.94676 22.0913 3.24143 22.152 3.5881 22.152C4.09076 22.152 4.50676 22.048 4.8361 21.84C5.18276 21.6493 5.45143 21.3807 5.6421 21.034C5.8501 20.6873 5.98876 20.2627 6.0581 19.76C6.14476 19.2747 6.1881 18.7287 6.1881 18.122V3.978C6.1881 3.44067 6.15343 2.99 6.0841 2.626C6.0321 2.24467 5.91943 1.93267 5.7461 1.69C5.57276 1.44734 5.32143 1.26534 4.9921 1.144C4.6801 1.00534 4.25543 0.918668 3.7181 0.884002C3.6141 0.884002 3.5361 0.840669 3.4841 0.754002C3.4321 0.650003 3.4061 0.546002 3.4061 0.442002C3.4061 0.320669 3.4321 0.216669 3.4841 0.130003C3.5361 0.043336 3.6141 2.74181e-06 3.7181 2.74181e-06C4.27276 2.74181e-06 4.90543 0.0260024 5.6161 0.0780017C6.32676 0.130002 6.9941 0.156002 7.6181 0.156002C7.9821 0.156002 8.3201 0.147336 8.6321 0.130003C8.96143 0.11267 9.27343 0.0953359 9.5681 0.0780017C9.8801 0.0606686 10.1921 0.0433355 10.5041 0.0260024C10.8161 0.0086693 11.1541 2.74181e-06 11.5181 2.74181e-06C11.6221 2.74181e-06 11.6914 0.043336 11.7261 0.130003C11.7781 0.216669 11.7954 0.320669 11.7781 0.442002C11.7781 0.546002 11.7521 0.650003 11.7001 0.754002C11.6481 0.840669 11.5788 0.884002 11.4921 0.884002C10.9548 0.918668 10.5214 0.996668 10.1921 1.118C9.86276 1.222 9.61143 1.38667 9.4381 1.612C9.26476 1.83734 9.1521 2.14067 9.1001 2.522C9.0481 2.90334 9.0221 3.38867 9.0221 3.978V16.796Z" fill="#155335"/>
<path d="M17.2361 14.942C16.9748 14.942 16.7881 14.9887 16.6761 15.082C16.5641 15.1567 16.4614 15.2967 16.3681 15.502L15.1081 18.806C15.0148 19.086 14.9681 19.3007 14.9681 19.45C14.9681 19.6927 15.0241 19.898 15.1361 20.066C15.2668 20.2153 15.4348 20.3367 15.6401 20.43C15.8454 20.5233 16.0788 20.598 16.3401 20.654C16.6014 20.71 16.8721 20.7473 17.1521 20.766C17.2828 20.766 17.3761 20.822 17.4321 20.934C17.4881 21.0273 17.5161 21.13 17.5161 21.242C17.5161 21.354 17.4881 21.4567 17.4321 21.55C17.3761 21.662 17.2828 21.718 17.1521 21.718C16.7041 21.718 16.1908 21.6807 15.6121 21.606C15.0334 21.5313 14.4828 21.494 13.9601 21.494C13.4748 21.494 13.0081 21.5313 12.5601 21.606C12.1121 21.6807 11.6268 21.718 11.1041 21.718C11.0108 21.718 10.9268 21.6713 10.8521 21.578C10.7961 21.4847 10.7588 21.382 10.7401 21.27C10.7401 21.158 10.7588 21.0553 10.7961 20.962C10.8521 20.85 10.9454 20.7847 11.0761 20.766L11.4961 20.71C11.7761 20.654 12.0281 20.5887 12.2521 20.514C12.4948 20.4207 12.7094 20.2807 12.8961 20.094C13.1014 19.9073 13.2974 19.6647 13.4841 19.366C13.6708 19.0487 13.8574 18.6473 14.0441 18.162L20.3721 2.23C20.4281 2.08067 20.5774 2.006 20.8201 2.006C21.0814 2.006 21.2868 2.08067 21.4361 2.23C21.9028 3.42467 22.3974 4.70334 22.9201 6.066C23.4614 7.42867 24.0121 8.81934 24.5721 10.238C25.1321 11.638 25.6921 13.038 26.2521 14.438C26.8121 15.8193 27.3441 17.126 27.8481 18.358C28.0721 18.8993 28.2868 19.3193 28.4921 19.618C28.7161 19.9167 28.9308 20.1407 29.1361 20.29C29.3601 20.4393 29.5841 20.542 29.8081 20.598C30.0321 20.654 30.2748 20.71 30.5361 20.766C30.6481 20.7847 30.7228 20.85 30.7601 20.962C30.8161 21.0553 30.8441 21.158 30.8441 21.27C30.8441 21.382 30.8161 21.4847 30.7601 21.578C30.7228 21.6713 30.6574 21.718 30.5641 21.718C29.9668 21.718 29.3881 21.6807 28.8281 21.606C28.2868 21.5313 27.6708 21.494 26.9801 21.494C26.1961 21.494 25.4588 21.5313 24.7681 21.606C24.0774 21.6807 23.4148 21.718 22.7801 21.718C22.6494 21.718 22.5468 21.662 22.4721 21.55C22.4161 21.4567 22.3881 21.3447 22.3881 21.214C22.3881 21.102 22.4161 21.0087 22.4721 20.934C22.5281 20.8407 22.6214 20.7847 22.7521 20.766C23.3868 20.6913 23.8534 20.5793 24.1521 20.43C24.4508 20.2807 24.6001 19.9727 24.6001 19.506C24.6001 19.3753 24.5814 19.226 24.5441 19.058C24.5254 18.89 24.4694 18.666 24.3761 18.386C24.2828 18.0873 24.1521 17.714 23.9841 17.266C23.8161 16.7993 23.5921 16.2113 23.3121 15.502C23.2188 15.2593 23.0881 15.11 22.9201 15.054C22.7708 14.9793 22.5188 14.942 22.1641 14.942H17.2361ZM22.0521 13.85C22.3134 13.85 22.4908 13.8127 22.5841 13.738C22.6774 13.6447 22.6774 13.486 22.5841 13.262L20.1481 6.71C20.1108 6.61667 20.0361 6.57 19.9241 6.57C19.8121 6.57 19.7374 6.61667 19.7001 6.71L17.1521 13.262C17.0588 13.5047 17.0494 13.6633 17.1241 13.738C17.1988 13.8127 17.3388 13.85 17.5441 13.85H22.0521ZM34.8586 21.914C34.4293 21.914 34.0559 21.7553 33.7386 21.438C33.4213 21.1207 33.2626 20.7473 33.2626 20.318C33.2626 19.8887 33.4213 19.5153 33.7386 19.198C34.0559 18.8807 34.4293 18.722 34.8586 18.722C35.3253 18.722 35.7079 18.8807 36.0066 19.198C36.3053 19.5153 36.4546 19.8887 36.4546 20.318C36.4546 20.7473 36.3053 21.1207 36.0066 21.438C35.7079 21.7553 35.3253 21.914 34.8586 21.914Z" fill="#155335"/>
</svg>
