<svg width="86" height="46" viewBox="0 0 86 46" fill="none" xmlns="http://www.w3.org/2000/svg">
<path d="M10.2921 17.056C10.2921 17.9747 10.1448 18.8153 9.85012 19.578C9.57278 20.358 9.18278 21.0253 8.68012 21.58C8.19478 22.1347 7.60545 22.568 6.91212 22.88C6.23612 23.192 5.50812 23.348 4.72812 23.348C3.63612 23.348 2.78678 23.1313 2.18012 22.698C1.57345 22.2647 1.27012 21.684 1.27012 20.956C1.27012 20.8 1.30478 20.6353 1.37412 20.462C1.42612 20.306 1.51278 20.1587 1.63412 20.02C1.73812 19.8813 1.87678 19.7687 2.05012 19.682C2.22345 19.5953 2.42278 19.552 2.64812 19.552C3.04678 19.552 3.37612 19.6733 3.63612 19.916C3.87878 20.1587 4.00012 20.436 4.00012 20.748C4.00012 20.904 3.93945 21.06 3.81812 21.216C3.69678 21.3893 3.63612 21.554 3.63612 21.71C3.63612 21.9353 3.74878 22.1087 3.97412 22.23C4.21678 22.3513 4.51145 22.412 4.85812 22.412C5.36078 22.412 5.77678 22.308 6.10612 22.1C6.45278 21.9093 6.72145 21.6407 6.91212 21.294C7.12012 20.9473 7.25878 20.5227 7.32812 20.02C7.41478 19.5347 7.45812 18.9887 7.45812 18.382V4.238C7.45812 3.70067 7.42345 3.25 7.35412 2.886C7.30212 2.50467 7.18945 2.19267 7.01612 1.95C6.84278 1.70733 6.59145 1.52533 6.26212 1.404C5.95012 1.26533 5.52545 1.17867 4.98812 1.144C4.88412 1.144 4.80612 1.10067 4.75412 1.014C4.70212 0.910001 4.67612 0.806001 4.67612 0.702C4.67612 0.580667 4.70212 0.476668 4.75412 0.390001C4.80612 0.303334 4.88412 0.260001 4.98812 0.260001C5.54278 0.260001 6.17545 0.286001 6.88612 0.338C7.59678 0.39 8.26412 0.416001 8.88812 0.416001C9.25212 0.416001 9.59012 0.407334 9.90212 0.390001C10.2315 0.372668 10.5435 0.355334 10.8381 0.338C11.1501 0.320667 11.4621 0.303334 11.7741 0.286001C12.0861 0.268668 12.4241 0.260001 12.7881 0.260001C12.8921 0.260001 12.9615 0.303334 12.9961 0.390001C13.0481 0.476668 13.0655 0.580667 13.0481 0.702C13.0481 0.806001 13.0221 0.910001 12.9701 1.014C12.9181 1.10067 12.8488 1.144 12.7621 1.144C12.2248 1.17867 11.7915 1.25667 11.4621 1.378C11.1328 1.482 10.8815 1.64667 10.7081 1.872C10.5348 2.09733 10.4221 2.40067 10.3701 2.782C10.3181 3.16333 10.2921 3.64867 10.2921 4.238V17.056ZM32.2337 10.946C32.2337 12.0727 32.1037 13.0867 31.8437 13.988C31.601 14.872 31.2023 15.626 30.6477 16.25C30.1103 16.8567 29.3997 17.3247 28.5157 17.654C27.6317 17.9833 26.557 18.148 25.2917 18.148C24.0783 18.148 23.021 18.0267 22.1197 17.784C21.2357 17.5413 20.499 17.16 19.9097 16.64C19.3377 16.1027 18.913 15.418 18.6357 14.586C18.3583 13.7367 18.2197 12.714 18.2197 11.518V4.238C18.2197 3.70067 18.185 3.24133 18.1157 2.86C18.0637 2.47867 17.951 2.16667 17.7777 1.924C17.6043 1.68133 17.353 1.49933 17.0237 1.378C16.7117 1.23933 16.287 1.15267 15.7497 1.118C15.6457 1.118 15.5677 1.07467 15.5157 0.988001C15.4637 0.884 15.4377 0.78 15.4377 0.676C15.4377 0.572001 15.4637 0.476668 15.5157 0.390001C15.5677 0.303334 15.6457 0.260001 15.7497 0.260001C16.3043 0.260001 16.937 0.294668 17.6477 0.364001C18.3583 0.416001 19.0257 0.442 19.6497 0.442C20.0137 0.442 20.3517 0.433334 20.6637 0.416001C20.993 0.398667 21.305 0.381334 21.5997 0.364001C21.9117 0.329334 22.2237 0.303334 22.5357 0.286001C22.8477 0.268668 23.1857 0.260001 23.5497 0.260001C23.6537 0.260001 23.723 0.303334 23.7577 0.390001C23.8097 0.476668 23.827 0.572001 23.8097 0.676C23.8097 0.78 23.7837 0.884 23.7317 0.988001C23.6797 1.07467 23.6103 1.118 23.5237 1.118C22.9863 1.15267 22.553 1.23067 22.2237 1.352C21.8943 1.456 21.643 1.62933 21.4697 1.872C21.2963 2.09733 21.1837 2.40067 21.1317 2.782C21.0797 3.16333 21.0537 3.64867 21.0537 4.238V11.336C21.0537 12.064 21.149 12.7573 21.3397 13.416C21.5303 14.0747 21.8163 14.6553 22.1977 15.158C22.5963 15.6433 23.0903 16.0333 23.6797 16.328C24.269 16.6227 24.9623 16.77 25.7597 16.77C27.441 16.77 28.7237 16.3107 29.6077 15.392C30.4917 14.456 30.9337 12.9827 30.9337 10.972V6.578C30.9337 6.30067 30.9337 5.96267 30.9337 5.564C30.9337 5.148 30.925 4.74067 30.9077 4.342C30.8903 3.926 30.8643 3.536 30.8297 3.172C30.795 2.79067 30.743 2.496 30.6737 2.288C30.587 1.99333 30.4917 1.77667 30.3877 1.638C30.301 1.482 30.1883 1.36933 30.0497 1.3C29.911 1.23067 29.7377 1.196 29.5297 1.196C29.3217 1.17867 29.0617 1.15267 28.7497 1.118C28.663 1.118 28.5937 1.07467 28.5417 0.988001C28.507 0.884 28.4897 0.78 28.4897 0.676C28.4897 0.572001 28.507 0.476668 28.5417 0.390001C28.5763 0.303334 28.6457 0.260001 28.7497 0.260001C29.1657 0.260001 29.6077 0.294668 30.0757 0.364001C30.5437 0.416001 31.0203 0.442 31.5057 0.442C31.9563 0.442 32.407 0.416001 32.8577 0.364001C33.3083 0.294668 33.811 0.260001 34.3657 0.260001C34.4697 0.260001 34.5477 0.303334 34.5997 0.390001C34.6517 0.476668 34.6777 0.572001 34.6777 0.676C34.6777 0.78 34.6517 0.884 34.5997 0.988001C34.5477 1.07467 34.4697 1.118 34.3657 1.118C34.0537 1.15267 33.8023 1.17867 33.6117 1.196C33.4383 1.196 33.291 1.23067 33.1697 1.3C33.0483 1.36933 32.9357 1.482 32.8317 1.638C32.745 1.77667 32.641 1.99333 32.5197 2.288C32.433 2.496 32.3637 2.782 32.3117 3.146C32.277 3.51 32.251 3.9 32.2337 4.316C32.2163 4.71467 32.2077 5.122 32.2077 5.538C32.225 5.954 32.2337 6.318 32.2337 6.63V10.946ZM40.0081 3.77C40.0081 4.29 40.1121 4.732 40.3201 5.096C40.5454 5.44267 40.8228 5.73733 41.1521 5.98C41.4988 6.22267 41.8714 6.43933 42.2701 6.63C42.6861 6.80333 43.0848 6.97667 43.4661 7.15C44.1248 7.462 44.7748 7.79133 45.4161 8.138C46.0748 8.48467 46.6641 8.892 47.1841 9.36C47.7041 9.81067 48.1201 10.3567 48.4321 10.998C48.7614 11.622 48.9261 12.3847 48.9261 13.286C48.9261 14.1873 48.7354 14.95 48.3541 15.574C47.9901 16.1807 47.5048 16.6833 46.8981 17.082C46.3088 17.4633 45.6414 17.7407 44.8961 17.914C44.1508 18.0873 43.4054 18.174 42.6601 18.174C42.1748 18.174 41.6288 18.096 41.0221 17.94C40.4154 17.8013 39.8608 17.5847 39.3581 17.29C39.2714 17.2553 39.1848 17.2207 39.0981 17.186C39.0288 17.1513 38.9334 17.134 38.8121 17.134C38.6908 17.134 38.5608 17.186 38.4221 17.29C38.2834 17.394 38.1621 17.576 38.0581 17.836C38.0061 17.94 37.9368 18.0093 37.8501 18.044C37.7634 18.0787 37.6681 18.0873 37.5641 18.07C37.4774 18.07 37.3994 18.044 37.3301 17.992C37.2781 17.94 37.2521 17.8793 37.2521 17.81C37.3041 17.4287 37.3474 17.0213 37.3821 16.588C37.4341 16.1373 37.4601 15.6867 37.4601 15.236C37.4601 14.7853 37.4428 14.3347 37.4081 13.884C37.3908 13.4333 37.3474 12.9653 37.2781 12.48C37.2608 12.376 37.2954 12.2893 37.3821 12.22C37.4688 12.1507 37.5641 12.116 37.6681 12.116C37.7721 12.0987 37.8674 12.116 37.9541 12.168C38.0581 12.2027 38.1188 12.272 38.1361 12.376C38.2401 13.0867 38.4308 13.7367 38.7081 14.326C38.9854 14.898 39.3321 15.392 39.7481 15.808C40.1641 16.2067 40.6321 16.5187 41.1521 16.744C41.6894 16.9693 42.2701 17.082 42.8941 17.082C43.3621 17.082 43.8041 17.0213 44.2201 16.9C44.6534 16.7613 45.0348 16.5707 45.3641 16.328C45.6934 16.068 45.9534 15.756 46.1441 15.392C46.3348 15.028 46.4301 14.6033 46.4301 14.118C46.4301 13.494 46.2914 12.948 46.0141 12.48C45.7541 12.012 45.4248 11.6133 45.0261 11.284C44.6274 10.9373 44.1854 10.6427 43.7001 10.4C43.2148 10.14 42.7554 9.906 42.3221 9.698C41.7501 9.438 41.1781 9.16933 40.6061 8.892C40.0341 8.61467 39.5228 8.28533 39.0721 7.904C38.6214 7.50533 38.2574 7.03733 37.9801 6.5C37.7028 5.94533 37.5641 5.26067 37.5641 4.446C37.5641 3.614 37.7288 2.92067 38.0581 2.366C38.4048 1.794 38.8554 1.33467 39.4101 0.988001C39.9648 0.641334 40.5974 0.39 41.3081 0.234C42.0188 0.0779998 42.7554 -2.38419e-07 43.5181 -2.38419e-07C44.0034 -2.38419e-07 44.4108 0.0346665 44.7401 0.104C45.0868 0.156 45.4681 0.251334 45.8841 0.390001C46.1094 0.459334 46.2914 0.520001 46.4301 0.572C46.5861 0.606667 46.7334 0.624001 46.8721 0.624001C47.0801 0.624001 47.2274 0.537334 47.3141 0.364001C47.3488 0.294668 47.4094 0.251334 47.4961 0.234C47.6001 0.199334 47.6954 0.190667 47.7821 0.208C47.8688 0.208 47.9468 0.225334 48.0161 0.260001C48.0854 0.294667 48.1114 0.346667 48.0941 0.416001C48.0074 0.728001 47.9468 1.04 47.9121 1.352C47.8948 1.664 47.8861 1.99333 47.8861 2.34C47.8861 2.79067 47.9121 3.198 47.9641 3.562C48.0161 3.926 48.0594 4.35933 48.0941 4.862C48.0941 4.914 48.0594 4.966 47.9901 5.018C47.9208 5.05267 47.8341 5.07867 47.7301 5.096C47.6434 5.096 47.5568 5.07867 47.4701 5.044C47.3834 5.00933 47.3314 4.94867 47.3141 4.862C47.1408 4.09933 46.9501 3.47533 46.7421 2.99C46.5341 2.48733 46.2741 2.09733 45.9621 1.82C45.6501 1.54267 45.2688 1.352 44.8181 1.248C44.3848 1.144 43.8561 1.092 43.2321 1.092C42.7988 1.092 42.3828 1.15267 41.9841 1.274C41.6028 1.378 41.2648 1.54267 40.9701 1.768C40.6754 1.99333 40.4414 2.27933 40.2681 2.626C40.0948 2.95533 40.0081 3.33667 40.0081 3.77ZM60.8189 14.43C60.8189 15.002 60.8449 15.4527 60.8969 15.782C60.9489 16.094 61.0615 16.3367 61.2349 16.51C61.4255 16.6833 61.6855 16.8133 62.0149 16.9C62.3442 16.9693 62.7862 17.03 63.3409 17.082C63.4449 17.0993 63.5229 17.16 63.5749 17.264C63.6442 17.3507 63.6789 17.446 63.6789 17.55C63.6789 17.654 63.6442 17.7493 63.5749 17.836C63.5229 17.9227 63.4362 17.966 63.3149 17.966C62.6215 17.966 61.9542 17.9313 61.3129 17.862C60.6889 17.7927 60.0649 17.758 59.4409 17.758C58.7822 17.758 58.0975 17.7927 57.3869 17.862C56.6935 17.9313 56.0609 17.966 55.4889 17.966C55.3849 17.966 55.3069 17.9227 55.2549 17.836C55.2029 17.7493 55.1769 17.654 55.1769 17.55C55.1769 17.446 55.2029 17.3507 55.2549 17.264C55.3069 17.16 55.3849 17.0993 55.4889 17.082C56.0262 17.03 56.4509 16.9693 56.7629 16.9C57.0922 16.8133 57.3435 16.6833 57.5169 16.51C57.7075 16.3367 57.8289 16.094 57.8809 15.782C57.9502 15.4527 57.9849 15.002 57.9849 14.43V2.886C57.9849 2.24467 57.8202 1.846 57.4909 1.69C57.1789 1.51667 56.6415 1.43 55.8789 1.43C55.2375 1.43 54.7089 1.482 54.2929 1.586C53.8769 1.67267 53.5302 1.846 53.2529 2.106C52.9929 2.34867 52.7762 2.68667 52.6029 3.12C52.4469 3.55333 52.2995 4.11667 52.1609 4.81C52.1435 4.914 52.0829 4.98333 51.9789 5.018C51.8922 5.05267 51.7969 5.07 51.6929 5.07C51.6062 5.05267 51.5195 5.018 51.4329 4.966C51.3635 4.914 51.3289 4.85333 51.3289 4.784C51.3982 4.14267 51.4329 3.49267 51.4329 2.834C51.4502 2.158 51.4155 1.49067 51.3289 0.832C51.3289 0.641334 51.4502 0.511334 51.6929 0.442C51.9355 0.372667 52.2042 0.338 52.4989 0.338H66.4089C66.7382 0.338 67.0069 0.372667 67.2149 0.442C67.4402 0.494001 67.5529 0.615334 67.5529 0.806C67.5182 1.014 67.4835 1.274 67.4489 1.586C67.4315 1.88067 67.4229 2.21 67.4229 2.574C67.4229 2.938 67.4315 3.31067 67.4489 3.692C67.4835 4.07333 67.5182 4.43733 67.5529 4.784C67.5529 4.85333 67.5095 4.92267 67.4229 4.992C67.3362 5.044 67.2409 5.07867 67.1369 5.096C67.0329 5.096 66.9289 5.07867 66.8249 5.044C66.7382 5.00933 66.6862 4.94 66.6689 4.836C66.5649 4.14267 66.4262 3.57933 66.2529 3.146C66.0795 2.69533 65.8455 2.34867 65.5509 2.106C65.2735 1.846 64.9269 1.67267 64.5109 1.586C64.0949 1.482 63.6009 1.43 63.0289 1.43C62.2489 1.43 61.6855 1.51667 61.3389 1.69C60.9922 1.846 60.8189 2.24467 60.8189 2.886V14.43ZM6.03212 38.674C5.78945 38.674 5.61612 38.7173 5.51212 38.804C5.40812 38.8733 5.31278 39.0033 5.22612 39.194L4.05612 42.262C3.96945 42.522 3.92612 42.7213 3.92612 42.86C3.92612 43.0853 3.97812 43.276 4.08212 43.432C4.20345 43.5707 4.35945 43.6833 4.55012 43.77C4.74078 43.8567 4.95745 43.926 5.20012 43.978C5.44278 44.03 5.69412 44.0647 5.95412 44.082C6.07545 44.082 6.16212 44.134 6.21412 44.238C6.26612 44.3247 6.29212 44.42 6.29212 44.524C6.29212 44.628 6.26612 44.7233 6.21412 44.81C6.16212 44.914 6.07545 44.966 5.95412 44.966C5.53812 44.966 5.06145 44.9313 4.52412 44.862C3.98678 44.7927 3.47545 44.758 2.99012 44.758C2.53945 44.758 2.10612 44.7927 1.69012 44.862C1.27412 44.9313 0.823451 44.966 0.338117 44.966C0.251451 44.966 0.173451 44.9227 0.104117 44.836C0.0521172 44.7493 0.0174505 44.654 0.000117197 44.55C0.000117197 44.446 0.0174505 44.3507 0.0521172 44.264C0.104117 44.16 0.190784 44.0993 0.312117 44.082L0.702117 44.03C0.962117 43.978 1.19612 43.9173 1.40412 43.848C1.62945 43.7613 1.82878 43.6313 2.00212 43.458C2.19278 43.2847 2.37478 43.0593 2.54812 42.782C2.72145 42.4873 2.89478 42.1147 3.06812 41.664L8.94412 26.87C8.99612 26.7313 9.13478 26.662 9.36012 26.662C9.60278 26.662 9.79345 26.7313 9.93212 26.87C10.3655 27.9793 10.8248 29.1667 11.3101 30.432C11.8128 31.6973 12.3241 32.9887 12.8441 34.306C13.3641 35.606 13.8841 36.906 14.4041 38.206C14.9241 39.4887 15.4181 40.702 15.8861 41.846C16.0941 42.3487 16.2935 42.7387 16.4841 43.016C16.6921 43.2933 16.8915 43.5013 17.0821 43.64C17.2901 43.7787 17.4981 43.874 17.7061 43.926C17.9141 43.978 18.1395 44.03 18.3821 44.082C18.4861 44.0993 18.5555 44.16 18.5901 44.264C18.6421 44.3507 18.6681 44.446 18.6681 44.55C18.6681 44.654 18.6421 44.7493 18.5901 44.836C18.5555 44.9227 18.4948 44.966 18.4081 44.966C17.8535 44.966 17.3161 44.9313 16.7961 44.862C16.2935 44.7927 15.7215 44.758 15.0801 44.758C14.3521 44.758 13.6675 44.7927 13.0261 44.862C12.3848 44.9313 11.7695 44.966 11.1801 44.966C11.0588 44.966 10.9635 44.914 10.8941 44.81C10.8421 44.7233 10.8161 44.6193 10.8161 44.498C10.8161 44.394 10.8421 44.3073 10.8941 44.238C10.9461 44.1513 11.0328 44.0993 11.1541 44.082C11.7435 44.0127 12.1768 43.9087 12.4541 43.77C12.7315 43.6313 12.8701 43.3453 12.8701 42.912C12.8701 42.7907 12.8528 42.652 12.8181 42.496C12.8008 42.34 12.7488 42.132 12.6621 41.872C12.5755 41.5947 12.4541 41.248 12.2981 40.832C12.1421 40.3987 11.9341 39.8527 11.6741 39.194C11.5875 38.9687 11.4661 38.83 11.3101 38.778C11.1715 38.7087 10.9375 38.674 10.6081 38.674H6.03212ZM10.5041 37.66C10.7468 37.66 10.9115 37.6253 10.9981 37.556C11.0848 37.4693 11.0848 37.322 10.9981 37.114L8.73612 31.03C8.70145 30.9433 8.63212 30.9 8.52812 30.9C8.42412 30.9 8.35478 30.9433 8.32012 31.03L5.95412 37.114C5.86745 37.3393 5.85878 37.4867 5.92812 37.556C5.99745 37.6253 6.12745 37.66 6.31812 37.66H10.5041ZM34.3528 37.946C34.3528 39.0727 34.2228 40.0867 33.9628 40.988C33.7202 41.872 33.3215 42.626 32.7668 43.25C32.2295 43.8567 31.5188 44.3247 30.6348 44.654C29.7508 44.9833 28.6762 45.148 27.4108 45.148C26.1975 45.148 25.1402 45.0267 24.2388 44.784C23.3548 44.5413 22.6182 44.16 22.0288 43.64C21.4568 43.1027 21.0322 42.418 20.7548 41.586C20.4775 40.7367 20.3388 39.714 20.3388 38.518V31.238C20.3388 30.7007 20.3042 30.2413 20.2348 29.86C20.1828 29.4787 20.0702 29.1667 19.8968 28.924C19.7235 28.6813 19.4722 28.4993 19.1428 28.378C18.8308 28.2393 18.4062 28.1527 17.8688 28.118C17.7648 28.118 17.6868 28.0747 17.6348 27.988C17.5828 27.884 17.5568 27.78 17.5568 27.676C17.5568 27.572 17.5828 27.4767 17.6348 27.39C17.6868 27.3033 17.7648 27.26 17.8688 27.26C18.4235 27.26 19.0562 27.2947 19.7668 27.364C20.4775 27.416 21.1448 27.442 21.7688 27.442C22.1328 27.442 22.4708 27.4333 22.7828 27.416C23.1122 27.3987 23.4242 27.3813 23.7188 27.364C24.0308 27.3293 24.3428 27.3033 24.6548 27.286C24.9668 27.2687 25.3048 27.26 25.6688 27.26C25.7728 27.26 25.8422 27.3033 25.8768 27.39C25.9288 27.4767 25.9462 27.572 25.9288 27.676C25.9288 27.78 25.9028 27.884 25.8508 27.988C25.7988 28.0747 25.7295 28.118 25.6428 28.118C25.1055 28.1527 24.6722 28.2307 24.3428 28.352C24.0135 28.456 23.7622 28.6293 23.5888 28.872C23.4155 29.0973 23.3028 29.4007 23.2508 29.782C23.1988 30.1633 23.1728 30.6487 23.1728 31.238V38.336C23.1728 39.064 23.2682 39.7573 23.4588 40.416C23.6495 41.0747 23.9355 41.6553 24.3168 42.158C24.7155 42.6433 25.2095 43.0333 25.7988 43.328C26.3882 43.6227 27.0815 43.77 27.8788 43.77C29.5602 43.77 30.8428 43.3107 31.7268 42.392C32.6108 41.456 33.0528 39.9827 33.0528 37.972V33.578C33.0528 33.3007 33.0528 32.9627 33.0528 32.564C33.0528 32.148 33.0442 31.7407 33.0268 31.342C33.0095 30.926 32.9835 30.536 32.9488 30.172C32.9142 29.7907 32.8622 29.496 32.7928 29.288C32.7062 28.9933 32.6108 28.7767 32.5068 28.638C32.4202 28.482 32.3075 28.3693 32.1688 28.3C32.0302 28.2307 31.8568 28.196 31.6488 28.196C31.4408 28.1787 31.1808 28.1527 30.8688 28.118C30.7822 28.118 30.7128 28.0747 30.6608 27.988C30.6262 27.884 30.6088 27.78 30.6088 27.676C30.6088 27.572 30.6262 27.4767 30.6608 27.39C30.6955 27.3033 30.7648 27.26 30.8688 27.26C31.2848 27.26 31.7268 27.2947 32.1948 27.364C32.6628 27.416 33.1395 27.442 33.6248 27.442C34.0755 27.442 34.5262 27.416 34.9768 27.364C35.4275 27.2947 35.9302 27.26 36.4848 27.26C36.5888 27.26 36.6668 27.3033 36.7188 27.39C36.7708 27.4767 36.7968 27.572 36.7968 27.676C36.7968 27.78 36.7708 27.884 36.7188 27.988C36.6668 28.0747 36.5888 28.118 36.4848 28.118C36.1728 28.1527 35.9215 28.1787 35.7308 28.196C35.5575 28.196 35.4102 28.2307 35.2888 28.3C35.1675 28.3693 35.0548 28.482 34.9508 28.638C34.8642 28.7767 34.7602 28.9933 34.6388 29.288C34.5522 29.496 34.4828 29.782 34.4308 30.146C34.3962 30.51 34.3702 30.9 34.3528 31.316C34.3355 31.7147 34.3268 32.122 34.3268 32.538C34.3442 32.954 34.3528 33.318 34.3528 33.63V37.946ZM42.0232 31.706C42.0232 31.3247 42.0059 30.952 41.9712 30.588C41.9539 30.224 41.9019 29.886 41.8152 29.574C41.7286 29.262 41.5899 28.9933 41.3992 28.768C41.2259 28.5427 40.9832 28.3867 40.6712 28.3C40.4806 28.248 40.2812 28.2047 40.0732 28.17C39.8652 28.1353 39.6659 28.1093 39.4752 28.092C39.3712 28.092 39.2932 28.0487 39.2412 27.962C39.1892 27.8753 39.1632 27.78 39.1632 27.676C39.1632 27.572 39.1892 27.4767 39.2412 27.39C39.2932 27.3033 39.3712 27.26 39.4752 27.26C40.0646 27.26 40.5932 27.2773 41.0612 27.312C41.5292 27.3467 42.0752 27.364 42.6992 27.364C43.4099 27.364 44.1119 27.3553 44.8052 27.338C45.4986 27.3033 46.2006 27.2773 46.9112 27.26C48.3326 27.26 49.6412 27.4853 50.8372 27.936C52.0506 28.3867 53.0906 29.0193 53.9572 29.834C54.8239 30.6313 55.4999 31.5933 55.9852 32.72C56.4879 33.8293 56.7392 35.0427 56.7392 36.36C56.7392 37.816 56.5052 39.0813 56.0372 40.156C55.5692 41.2307 54.9279 42.132 54.1132 42.86C53.2986 43.5707 52.3279 44.0993 51.2012 44.446C50.0919 44.7927 48.8872 44.966 47.5872 44.966C46.8072 44.966 46.0446 44.9313 45.2992 44.862C44.5712 44.7927 43.9126 44.758 43.3232 44.758C42.9592 44.758 42.6299 44.7667 42.3352 44.784C42.0406 44.784 41.7546 44.7927 41.4772 44.81C41.1999 44.8273 40.9139 44.8533 40.6192 44.888C40.3419 44.9227 40.0299 44.9573 39.6832 44.992C39.5792 45.0093 39.4926 44.9747 39.4232 44.888C39.3712 44.8013 39.3366 44.706 39.3192 44.602C39.3019 44.498 39.3192 44.394 39.3712 44.29C39.4406 44.186 39.5446 44.1253 39.6832 44.108C40.0992 44.056 40.4546 43.9867 40.7492 43.9C41.0439 43.796 41.2866 43.6573 41.4772 43.484C41.6679 43.3107 41.8066 43.0853 41.8932 42.808C41.9799 42.5307 42.0232 42.1667 42.0232 41.716V31.706ZM44.8572 39.922C44.8572 40.7887 44.8919 41.482 44.9612 42.002C45.0479 42.5047 45.2039 42.886 45.4292 43.146C45.6546 43.406 45.9752 43.5793 46.3912 43.666C46.8246 43.7353 47.3966 43.77 48.1072 43.77C48.8872 43.77 49.5979 43.6053 50.2392 43.276C50.8979 42.9467 51.4612 42.47 51.9292 41.846C52.3972 41.2047 52.7612 40.4247 53.0212 39.506C53.2812 38.5873 53.4112 37.53 53.4112 36.334C53.4112 35.0687 53.2812 33.9507 53.0212 32.98C52.7612 31.992 52.3366 31.1687 51.7472 30.51C51.1579 29.834 50.3692 29.3313 49.3812 29.002C48.4106 28.6553 47.2146 28.482 45.7932 28.482C45.4466 28.482 45.2039 28.5427 45.0652 28.664C44.9266 28.7853 44.8572 29.0193 44.8572 29.366V39.922ZM61.7743 31.238C61.7743 30.7007 61.7396 30.2413 61.6703 29.86C61.6183 29.4787 61.5056 29.1667 61.3323 28.924C61.159 28.6813 60.9076 28.4993 60.5783 28.378C60.2663 28.2393 59.8416 28.1527 59.3043 28.118C59.2003 28.118 59.1223 28.0747 59.0703 27.988C59.0183 27.884 58.9923 27.78 58.9923 27.676C58.9923 27.572 59.0183 27.4767 59.0703 27.39C59.1223 27.3033 59.2003 27.26 59.3043 27.26C59.859 27.26 60.4916 27.286 61.2023 27.338C61.913 27.39 62.5803 27.416 63.2043 27.416C63.5683 27.416 63.9063 27.4073 64.2183 27.39C64.5476 27.3727 64.8596 27.3553 65.1543 27.338C65.4663 27.3207 65.7783 27.3033 66.0903 27.286C66.4023 27.2687 66.7403 27.26 67.1043 27.26C67.2083 27.26 67.2776 27.3033 67.3123 27.39C67.3643 27.4767 67.3816 27.572 67.3643 27.676C67.3643 27.78 67.3383 27.884 67.2863 27.988C67.2343 28.0747 67.165 28.118 67.0783 28.118C66.541 28.1527 66.1076 28.2307 65.7783 28.352C65.449 28.456 65.1976 28.6293 65.0243 28.872C64.851 29.0973 64.7383 29.4007 64.6863 29.782C64.6343 30.1633 64.6083 30.6487 64.6083 31.238V41.43C64.6083 42.002 64.643 42.4527 64.7123 42.782C64.7816 43.094 64.903 43.3367 65.0763 43.51C65.267 43.6833 65.527 43.8133 65.8563 43.9C66.1856 43.9693 66.6103 44.03 67.1303 44.082C67.2343 44.0993 67.3123 44.16 67.3643 44.264C67.4336 44.3507 67.4683 44.446 67.4683 44.55C67.4683 44.654 67.4336 44.7493 67.3643 44.836C67.3123 44.9227 67.2256 44.966 67.1043 44.966C66.411 44.966 65.7436 44.9313 65.1023 44.862C64.4783 44.7927 63.8543 44.758 63.2303 44.758C62.5716 44.758 61.887 44.7927 61.1763 44.862C60.483 44.9313 59.8503 44.966 59.2783 44.966C59.1743 44.966 59.0963 44.9227 59.0443 44.836C58.9923 44.7493 58.9663 44.654 58.9663 44.55C58.9663 44.446 58.9923 44.3507 59.0443 44.264C59.0963 44.16 59.1743 44.0993 59.2783 44.082C59.8156 44.03 60.2403 43.9693 60.5523 43.9C60.8816 43.8133 61.133 43.6833 61.3063 43.51C61.497 43.3367 61.6183 43.094 61.6703 42.782C61.7396 42.4527 61.7743 42.002 61.7743 41.43V31.238ZM78.9331 41.43C78.9331 42.002 78.9591 42.4527 79.0111 42.782C79.0631 43.094 79.1757 43.3367 79.3491 43.51C79.5397 43.6833 79.7997 43.8133 80.1291 43.9C80.4584 43.9693 80.9004 44.03 81.4551 44.082C81.5591 44.0993 81.6371 44.16 81.6891 44.264C81.7584 44.3507 81.7931 44.446 81.7931 44.55C81.7931 44.654 81.7584 44.7493 81.6891 44.836C81.6371 44.9227 81.5504 44.966 81.4291 44.966C80.7357 44.966 80.0684 44.9313 79.4271 44.862C78.8031 44.7927 78.1791 44.758 77.5551 44.758C76.8964 44.758 76.2117 44.7927 75.5011 44.862C74.8077 44.9313 74.1751 44.966 73.6031 44.966C73.4991 44.966 73.4211 44.9227 73.3691 44.836C73.3171 44.7493 73.2911 44.654 73.2911 44.55C73.2911 44.446 73.3171 44.3507 73.3691 44.264C73.4211 44.16 73.4991 44.0993 73.6031 44.082C74.1404 44.03 74.5651 43.9693 74.8771 43.9C75.2064 43.8133 75.4577 43.6833 75.6311 43.51C75.8217 43.3367 75.9431 43.094 75.9951 42.782C76.0644 42.4527 76.0991 42.002 76.0991 41.43V29.886C76.0991 29.2447 75.9344 28.846 75.6051 28.69C75.2931 28.5167 74.7557 28.43 73.9931 28.43C73.3517 28.43 72.8231 28.482 72.4071 28.586C71.9911 28.6727 71.6444 28.846 71.3671 29.106C71.1071 29.3487 70.8904 29.6867 70.7171 30.12C70.5611 30.5533 70.4137 31.1167 70.2751 31.81C70.2577 31.914 70.1971 31.9833 70.0931 32.018C70.0064 32.0527 69.9111 32.07 69.8071 32.07C69.7204 32.0527 69.6337 32.018 69.5471 31.966C69.4777 31.914 69.4431 31.8533 69.4431 31.784C69.5124 31.1427 69.5471 30.4927 69.5471 29.834C69.5644 29.158 69.5297 28.4907 69.4431 27.832C69.4431 27.6413 69.5644 27.5113 69.8071 27.442C70.0497 27.3727 70.3184 27.338 70.6131 27.338H84.5231C84.8524 27.338 85.1211 27.3727 85.3291 27.442C85.5544 27.494 85.6671 27.6153 85.6671 27.806C85.6324 28.014 85.5977 28.274 85.5631 28.586C85.5457 28.8807 85.5371 29.21 85.5371 29.574C85.5371 29.938 85.5457 30.3107 85.5631 30.692C85.5977 31.0733 85.6324 31.4373 85.6671 31.784C85.6671 31.8533 85.6237 31.9227 85.5371 31.992C85.4504 32.044 85.3551 32.0787 85.2511 32.096C85.1471 32.096 85.0431 32.0787 84.9391 32.044C84.8524 32.0093 84.8004 31.94 84.7831 31.836C84.6791 31.1427 84.5404 30.5793 84.3671 30.146C84.1937 29.6953 83.9597 29.3487 83.6651 29.106C83.3877 28.846 83.0411 28.6727 82.6251 28.586C82.2091 28.482 81.7151 28.43 81.1431 28.43C80.3631 28.43 79.7997 28.5167 79.4531 28.69C79.1064 28.846 78.9331 29.2447 78.9331 29.886V41.43Z" fill="#155335"/>
</svg>
